<svg xmlns="http://www.w3.org/2000/svg" fill="currentColor" viewBox="0 0 727 2716"><path d="M0 0v401.927H156.57V200.465l430.815 201.462H727V12.965H569.434v187.5L138.619 0H0ZM0 431.302v174.534l119.671 13.963v97.739L.001 732.498v174.534L727 793.335V543.004L0 431.302Zm259.287 202.459 152.58 17.952 149.588 12.966v6.981l-148.591 14.96-153.577 15.958v-68.817ZM0 937.186v163.564H156.57l200.449-8.98v5.99L0 1178.54v186.5h727v-163.56H573.423l-208.427 8.98v-6.99L727 1125.68V937.186H0ZM0 1421.25v161.56c0 233.38 148.591 283.25 363.001 283.25 269.26 0 363.999-93.75 363.999-283.25v-161.56H0Zm156.569 178.52h413.862v14.96c0 53.86-47.869 71.81-203.441 71.81-140.613 0-210.421-9.98-210.421-71.81v-14.96ZM0 1908.23v331.11h156.569v-154.58H298.18v140.62h145.599v-140.62h126.652v154.58H727v-331.11H0ZM0 2285.15v178.52h247.32v24.94c0 33.91-41.885 34.9-76.789 34.9H62.827c-12.964 0-42.882 2-62.827 7.98v180.52c20.942-3.99 42.882-6.98 73.797-6.98h116.679c71.802 0 136.624-16.96 146.597-72.81h6.98c17.951 50.87 76.789 83.78 171.529 83.78C678.134 2716 727 2623.25 727 2485.62v-200.47H0Zm386.935 178.52h183.496v11.97c0 42.89-23.934 60.84-91.748 60.84-58.838 0-91.748-10.97-91.748-59.84v-12.97Z"/></svg>